<svg fill="none" height="44" width="143" xmlns="http://www.w3.org/2000/svg"><path d="m49.246 21.667a7.617 7.617 0 0 1 .508-3.003 7.525 7.525 0 0 1 1.652-2.564 7.571 7.571 0 0 1 2.529-1.72 7.874 7.874 0 0 1 3.003-.601c3.892 0 6.19 2.264 6.883 4.931l-2.437.82a4.268 4.268 0 0 0 -1.593-2.483 4.262 4.262 0 0 0 -2.842-.843c-2.517 0-5.035 1.825-5.035 5.521s2.46 5.451 5.07 5.451a4.58 4.58 0 0 0 2.853-.889 4.547 4.547 0 0 0 1.686-2.448l2.368.773a6.795 6.795 0 0 1 -2.576 3.73 6.855 6.855 0 0 1 -4.366 1.295 7.41 7.41 0 0 1 -3.037-.578 7.415 7.415 0 0 1 -2.553-1.733 7.35 7.35 0 0 1 -1.64-2.61 7.472 7.472 0 0 1 -.473-3.049zm19.345 7.588h-2.506v-15.522h2.506v6.086c.37-.427.82-.773 1.34-.993a3.645 3.645 0 0 1 1.64-.312c2.587 0 3.835 1.848 3.835 4.146v6.607h-2.426v-6.18c.046-.3.023-.611-.07-.9a2.143 2.143 0 0 0 -.45-.785 2.11 2.11 0 0 0 -.75-.509 1.997 1.997 0 0 0 -.901-.138c-.3 0-.6.058-.878.185-.277.115-.52.3-.728.52a2.25 2.25 0 0 0 -.462.762 2.12 2.12 0 0 0 -.104.889zm12.404-5.982 2.691-.416c.6-.081.774-.381.774-.75 0-.879-.6-1.595-1.986-1.595a2.07 2.07 0 0 0 -.797.093c-.255.08-.497.22-.693.392a2.02 2.02 0 0 0 -.485.636 1.814 1.814 0 0 0 -.185.773l-2.287-.508c.185-1.802 1.836-3.418 4.412-3.418 3.234 0 4.47 1.824 4.47 3.95v5.185c0 .566.034 1.12.127 1.675h-2.333a6.44 6.44 0 0 1 -.104-1.328 3.638 3.638 0 0 1 -1.398 1.247 3.615 3.615 0 0 1 -1.836.393 3.206 3.206 0 0 1 -1.317-.162 3.325 3.325 0 0 1 -1.94-1.71 3.27 3.27 0 0 1 -.312-1.281c.023-1.894 1.397-2.922 3.2-3.176zm3.465 1.674v-.473l-2.737.404c-.37.012-.728.162-.982.427a1.459 1.459 0 0 0 -.416.994c0 .196.046.38.127.554.081.173.197.323.335.45.139.127.312.22.497.278.185.057.381.08.566.057.358.035.727-.011 1.062-.138a2.35 2.35 0 0 0 .901-.59c.254-.265.44-.577.555-.923a2.39 2.39 0 0 0 .092-1.04zm6.7-11.434c.219 0 .427.035.635.116.196.08.38.196.542.346a1.641 1.641 0 0 1 .485 1.155c0 .427-.173.843-.473 1.144-.3.3-.716.473-1.155.473-.427 0-.843-.173-1.155-.473a1.63 1.63 0 0 1 -.474-1.144c0-.427.162-.831.462-1.132.3-.3.705-.473 1.132-.485zm-1.213 15.789v-10.488h2.471v10.441zm8.199-.047h-2.506v-10.44h2.437v1.385a3.478 3.478 0 0 1 3.106-1.697c2.564 0 3.789 1.848 3.789 4.146v6.606h-2.507v-6.179c0-1.282-.589-2.321-2.148-2.321-.312 0-.623.07-.9.196a2.049 2.049 0 0 0 -.74.543 2.145 2.145 0 0 0 -.45.808 2.22 2.22 0 0 0 -.081.913zm9.887 0v-15.522h2.506v15.522zm6.964-15.742c.439 0 .855.174 1.155.474.312.3.485.716.485 1.155 0 .323-.104.635-.277.9a1.64 1.64 0 0 1 -.728.59c-.3.115-.623.15-.935.092a1.664 1.664 0 0 1 -.832-.439 1.633 1.633 0 0 1 -.45-.831 1.625 1.625 0 0 1 .092-.936c.127-.3.324-.543.601-.728a1.59 1.59 0 0 1 .889-.277zm-1.224 15.789v-10.488h2.483v10.441zm8.212-.047h-2.506v-10.44h2.436v1.385a3.48 3.48 0 0 1 3.107-1.697c2.564 0 3.8 1.848 3.8 4.146v6.606h-2.506v-6.179c.046-.3.023-.612-.069-.9a2.151 2.151 0 0 0 -.451-.786 2.108 2.108 0 0 0 -.751-.508 1.994 1.994 0 0 0 -.9-.139 2.18 2.18 0 0 0 -1.64.751 2.14 2.14 0 0 0 -.451.808c-.092.3-.115.613-.081.913v6.04zm15.384-6.029 4.411 6.03h-3.06l-3.084-4.297-1.293 1.351v2.957h-2.484v-15.534h2.484v9.309l4.03-4.228h3.327zm-117.748-13.686 10.81 6.18v12.403l-10.787 6.214-10.81-6.167v-12.405l10.786-6.225zm0-9.112-3.973 2.286-10.81 6.226-3.963 2.286v21.517l3.973 2.264 10.81 6.179 3.973 2.264 3.974-2.287 10.787-6.225 3.973-2.276v-21.528l-3.972-2.264-10.81-6.179-3.975-2.263h.012z" fill="#fff"/></svg>