<svg fill="none" height="44" width="150" xmlns="http://www.w3.org/2000/svg" xmlns:xlink="http://www.w3.org/1999/xlink"><clipPath id="a"><path d="m0 0h150v44h-150z"/></clipPath><g clip-path="url(#a)" fill="#fff"><path d="m144.212.423v8.98l-9.094-8.98h-4.595v17.784h5.635v-9.101l9.15 9.101h4.531v-17.784zm-87.04 17.784h14.946v-4.966h-14.946v-7.795h14.962v-5.023h-20.54v17.784zm52.803 0h13.777v-4.474h-13.777v-2.459h13.777v-3.982h-13.777v-2.394h13.777v-4.475h-19.356v17.784zm-78.358-3.998h8.287v4.03h5.555v-17.816h-19.404v17.784h5.562v-3.997zm0-8.868h8.287v3.95h-8.287zm-26.038 6.546h8.142v6.32h5.586v-17.784h-5.586v6.192h-8.142v-6.192h-5.579v17.784h5.579zm78.067.766h8.642l5.538-5.28h.032v-6.951h-5.57v6.95h-8.642v-6.95h-5.579v17.784h5.579v-5.554zm14.228 0h-5.578v5.554h5.578zm-79.333 12.213h-18.541v17.784h5.562v-4.031h13.786v-13.753zm-4.724 8.867h-8.255v-3.925h8.288zm26.458 3.887v5.054h5.184v-5.055h-5.184z"/><path d="m45.434 24.866h-19.347v17.808h5.587v-5.055h8.633l5.184-5.28-.056-7.473zm-5.514 8.247h-8.287v-3.886h8.287zm83.815-8.247h-19.315v17.784h5.554v-5.087h13.761v-4.95h-13.761v-2.805h13.761zm-57.179 0h-14.962v17.784h20.54v-17.784zm0 12.729h-9.368v-7.796h9.384zm31.334-12.729h-19.847v17.784h19.847zm-5.562 12.729h-8.69v-7.796h8.69zm48.541.456a4.33 4.33 0 1 0 -1.387-8.547 4.33 4.33 0 0 0 1.387 8.547zm8.446-7.268v.097l.653-.21v-.105a10.395 10.395 0 0 0 -6.272-6.449h-.097l-.234.645h.097a9.674 9.674 0 0 1 5.853 6.022zm-.073 6.207a9.705 9.705 0 0 1 -5.941 5.893h-.105l.226.645h.097a10.377 10.377 0 0 0 6.368-6.312v-.097l-.653-.233zm-18.187-.169v-.105l-.653.218v.105a10.36 10.36 0 0 0 6.45 6.505h.096l.226-.653h-.097a9.67 9.67 0 0 1 -6.022-6.07zm.041-6.207a9.682 9.682 0 0 1 6.159-6.006h.105l-.21-.653h-.105a10.375 10.375 0 0 0 -6.594 6.45v.096l.645.226z"/></g></svg>