<svg width="175" height="28" fill="none" xmlns="http://www.w3.org/2000/svg"><g clip-path="url(#a)" fill="#fff"><path d="M6.79 7.247H0V.475C6.833-.012 10.468-.539 13.881 7.454c1.767-4.736 4.711-7.84 10.101-7.35 4.148.378 5.725 3.333 6.485 7.223.567-1.116.96-2.014 1.457-2.85 2-3.351 5.43-4.95 9.244-4.354 2.893.45 5.067 2.777 5.594 6.113.214 1.367.327 2.766.338 4.151.04 5.024.014 10.05.014 15.074v1.937c-4.5.09-7.47-2.762-7.55-7.146-.057-3.268.004-6.539-.036-9.807-.018-1.668-.16-3.347-2.071-4.034-1.505-.542-3.915.102-4.798 1.74-.942 1.742-1.694 3.763-1.847 5.715-.287 3.67-.083 7.378-.087 11.071v2.05h-7.52v-1.922c0-4.722.014-9.444-.011-14.165-.015-2.77-.778-4.111-2.461-4.533-1.908-.476-4.37.516-5.314 2.592a14.378 14.378 0 0 0-1.261 5.201c-.186 4.107-.077 8.23-.091 12.348 0 .108-.077.218-.164.457H6.786c.004-6.542.004-13.045.004-19.718Zm103.446 2.13c-1.792-.956-3.533-1.887-5.387-2.875 1.269-2.654 3.337-4.235 5.863-5.23 3.421-1.35 6.972-1.513 10.534-.699 4.013.916 6.459 3.98 6.604 8.255.157 4.598.139 9.2.309 13.794.055 1.421.473 2.832.76 4.438-1.974 0-4.067.073-6.15-.054-.48-.03-1.134-.666-1.327-1.17-.363-.942-.45-1.993-.679-3.127-.189.2-.4.36-.527.567-2.399 3.868-6.688 5.358-11.021 3.828-2.668-.942-4.155-2.868-4.533-5.605-.392-2.853.309-5.54 2.952-6.884 2.54-1.294 5.405-1.96 8.145-2.854.858-.28 1.785-.349 2.639-.64.938-.316 2.33-.109 2.272-1.77-.055-1.595-.651-2.82-2.206-3.416-2.447-.942-5.565-.066-7.223 2.013-.334.426-.632.876-1.025 1.429Zm10.672 4.223c-1.396.455-2.37.75-3.329 1.084-1.022.356-2.076.665-3.043 1.137-2.406 1.185-3.278 3.428-2.155 5.329 1.065 1.803 3.682 2.046 5.728.364.854-.702 1.738-1.658 2.05-2.672.491-1.563.498-3.282.749-5.241Zm-45.02 13.46c-1.923 0-3.922.083-5.907-.055-.542-.036-1.287-.621-1.508-1.141-.415-.974-.52-2.083-.804-3.366-1.44 2.984-3.744 4.613-6.88 5.089-5.972.905-10.316-3.559-8.95-9.207.51-2.101 1.81-3.642 3.73-4.402 2.344-.927 4.82-1.52 7.251-2.228.87-.254 1.782-.356 2.64-.64.9-.298 2.246-.127 2.235-1.62-.011-1.55-.538-2.847-2.094-3.505-2.363-.996-5.55-.196-7.266 1.843-.385.458-.723.952-1.156 1.523a3798.93 3798.93 0 0 0-5.365-2.882c1.502-2.995 3.959-4.627 6.917-5.572 3.057-.978 6.194-1.07 9.324-.36 4.114.93 6.575 3.809 6.742 8.105.175 4.413.113 8.837.284 13.25.069 1.664.505 3.31.806 5.168ZM67.49 13.615c-2.18.84-4.423 1.515-6.488 2.544-2.086 1.043-2.66 3.293-1.6 5.042.942 1.552 2.96 1.872 4.98.788 2.756-1.468 3.882-4.441 3.108-8.374Zm85.771 8.713c1.45-1.24 2.82-2.414 4.26-3.642 1.537 2.06 3.34 3.613 5.993 3.692.717.022 1.556.11 2.127-.21.716-.404 1.548-1.12 1.712-1.84.142-.621-.396-1.737-.971-2.104-1.355-.865-2.911-1.418-4.39-2.087-1.48-.668-3.076-1.155-4.428-2.02-4.383-2.8-4.47-8.651-.309-11.777 4.271-3.213 13.834-3.17 17.4 2.45-1.381 1.203-2.777 2.424-3.827 3.34-1.8-1-3.312-2.04-4.976-2.679-.782-.302-1.934-.025-2.785.316-1.69.68-1.959 2.49-.523 3.61.931.723 2.101 1.148 3.188 1.65 2.075.956 4.325 1.628 6.222 2.853 3.701 2.392 4.053 7.826.924 10.901-4.875 4.787-15.823 3.504-19.617-2.453Zm-65.906-1.004h13.889v5.612H79.482c-.218-2.9-.338-5.43 2.134-7.767 4.165-3.94 7.91-8.327 12.064-12.776H80.035V.908h20.954c.026 2.773.666 5.434-1.897 7.884-4.002 3.82-7.597 8.065-11.737 12.532Zm48.965 5.638V6.356h-5.605V.864h11.969v8.873c.971-2.058 1.803-4.439 3.137-6.489 1.443-2.217 3.795-3.086 6.615-2.791v8.338c-1.181.098-2.319.142-3.442.298-3.108.425-4.776 1.814-5.132 4.944-.367 3.23-.284 6.517-.378 9.78-.029 1.015-.004 2.029-.004 3.141-2.457.004-4.725.004-7.16.004Z"/></g><defs><clipPath id="a"><path fill="#fff" d="M0 0h175v27.704H0z"/></clipPath></defs></svg>