<svg fill="none" height="6" viewBox="0 0 24 6" width="24" xmlns="http://www.w3.org/2000/svg" xmlns:xlink="http://www.w3.org/1999/xlink"><clipPath id="a"><path d="m0 .059998h23.97v5.88h-23.97z"/></clipPath><g clip-path="url(#a)" fill="#fff"><path d="m22.0638 4.34803-.9197-.17121c-.0196.21645-.0755.4035-.1672.5139s-.258.16746-.422.16746c-.1404.00387-.2766-.04791-.379-.14412-.102-.09492-.153-.23769-.1527-.42831v-1.40541h1.7236v-1.13563h-1.7236v-1.032155h-1.2513v3.552735c0 .50556.1477.91092.4431 1.21605.2953.30516.7351.45801 1.3195.45858.4986 0 .9263-.13776 1.2252-.41361.1203-.11115.2228-.24006.3041-.3822.1282-.2319.2106-.48633.2424-.7494z"/><path d="m9.94377 2.25448c-.20478-.36245-.50454-.6622-.867-.867-.36105-.21137-.78147-.31648-1.26129-.31533-.47271 0-.89304.10511-1.26102.31533-.36246.2048-.66219.50455-.867.867-.21003.36778-.31512.78485-.31533 1.2512-.00018.46638.10455.88383.31419 1.25238.20511.36159.50484.66051.867.86469.36777.21138.7881.31707 1.26099.31707.48039 0 .90084-.10512 1.26132-.31533.36279-.20448.66294-.50403.86814-.86643.21023-.3678.31533-.78486.31533-1.25121 0-.46636-.1051-.88382-.31533-1.25237zm-1.07508 1.95593c-.09894.19623-.24813.3627-.43236.48252-.1884.10986-.4026.16773-.6207.16773s-.4323-.05787-.62073-.16773c-.1842-.11982-.33339-.28629-.43233-.48252-.1053-.20982-.15786-.45453-.15768-.73413.00021-.27957.05277-.52428.15768-.73411.09504-.19885.24507-.3663.43233-.4825.18843-.10987.40263-.16776.62073-.16776s.4323.05789.6207.16776c.18726.1162.33732.28365.43236.4825.1053.20945.15783.45415.15765.73411-.00018.27999-.05274.5247-.15765.73413z"/><path d="m16.9607 4.06628c-.0663.24366-.1878.43773-.3646.58224s-.4197.21675-.7289.21675c-.203.00009-.4039-.04008-.5912-.11817-.1812-.08322-.3375-.2124-.4534-.3747-.1116-.17103-.174-.38124-.187-.63066h3.1823c.0133-.09186.0229-.18381.0289-.27585.0129-.09792.0195-.19662.0195-.29544 0-.43348-.0919-.80463-.2758-1.11342-.1731-.31115-.4337-.56469-.7494-.72923-.3211-.17044-.6987-.25566-1.1327-.25566-.4664 0-.8737.10838-1.2219.32513-.3439.21224-.6259.51126-.8177.867-.1904.36125-.2856.76477-.2856 1.21056 0 .49962.1051.93648.3153 1.31061.2053.36294.5093.66021.8768.85719.3753.19812.8026.29715 1.2821.29715.5647 0 1.0277-.13131 1.389-.39399.3679-.26289.6273-.61758.7782-1.06416zm-1.9332-1.77261c.196-.13799.4305-.21061.6702-.20753.169-.00418.337.02795.4926.09425.1348.04934.2515.13825.3349.25509.0887.11326.1372.25276.1381.3966-.0007.01622-.0041.0322-.0101.04728h-2.0009c.0657-.2574.1784-.45253.3752-.58483z"/><path d="m10.5555 5.84076 1.4717-5.7807624h1.3299l-1.4714 5.7807624z"/><path d="m1.33019 1.1705 1.27081 3.47665 1.33854-3.47665h1.3302l-1.90002 4.66936h-1.52763l-1.84209-4.66936z"/><path d="m23.4175 5.9399c-.097.00135-.1925-.02397-.2761-.07323-.081-.04821-.1481-.11661-.1947-.19854-.0465-.08193-.071-.17457-.071-.26883 0-.09423.0245-.18687.071-.2688.0466-.08193.1137-.15036.1947-.19857.0843-.04797.1797-.0732.2767-.0732s.1924.02523.2767.0732c.0804.04737.1472.11481.1937.19572.0465.08295.0709.17643.0709.2715 0 .0951-.0244.18858-.0709.27153-.0462.08088-.1125.14841-.1925.19599-.0843.04977-.1807.07512-.2785.07323zm0-.12741c.0739.00135.1466-.01791.2102-.05562.0618-.0369.113-.08931.1484-.15204.0353-.06276.0537-.13365.0533-.20568.0011-.07266-.0172-.1443-.053-.20751-.0356-.06147-.0864-.11268-.1476-.14874-.0638-.03696-.1362-.05655-.2099-.05679-.0738-.00024-.1463.01884-.2103.05535-.0606.03642-.111.0876-.1465.14874-.055.09453-.0705.20697-.0431.31287s.0955.19668.1896.25263c.0631.03759.1354.05703.2089.05622zm.0041-.15075c-.0466-.00099-.0921-.01404-.132-.03795-.04-.02388-.0731-.05775-.096-.09828s-.0349-.08634-.0347-.1329c.0001-.04656.0124-.09228.0355-.13266.0225-.03828.055-.06969.094-.09078.0388-.02166.0826-.03288.1271-.03258.0556-.00183.1103.0138.1565.04467.045.03372.0751.08367.0839.13923l-.109.03228c-.0043-.03159-.0197-.0606-.0435-.08187-.024-.02067-.0548-.03177-.0865-.03114-.036.00051-.0706.01449-.0968.03921-.0236.02124-.0403.04911-.0478.07995-.0076.03084-.0057.06324.0054.09297.0111.02976.0309.0555.0568.07383.0259.01836.0568.0285.0885.0291.0195.00144.0391-.00132.0574-.00816.0183-.00681.0349-.01749.0487-.03135.0238-.02685.039-.0603.0435-.09597l.1049.03861c-.0134.05928-.0461.1125-.0928.15135-.0467.03576-.1044.05412-.1631.05187z"/></g></svg>